<svg width="182" height="30" viewBox="0 0 182 30" fill="none" xmlns="http://www.w3.org/2000/svg">
<path fillRule="evenodd" clipRule="evenodd" d="M11.6633 0C9.12483 0 6.77919 1.35426 5.50995 3.55263L0.951925 11.4474C-0.317307 13.6457 -0.317309 16.3543 0.951925 18.5526L5.50995 26.4474C6.77919 28.6457 9.12483 30 11.6633 30H20.7794C23.3178 30 25.6634 28.6457 26.9327 26.4474L31.4907 18.5526C32.7599 16.3543 32.7599 13.6457 31.4907 11.4474L26.9327 3.55263C25.6634 1.35426 23.3178 0 20.7794 0H11.6633ZM20.7794 4.73684H15.0818C14.1702 4.73684 13.6006 5.7236 14.0571 6.51268C15.4655 8.94726 16.8772 11.38 18.2836 13.8158C18.7067 14.5486 18.7067 15.4514 18.2836 16.1842C16.8772 18.62 15.4655 21.0527 14.0571 23.4873C13.6006 24.2764 14.1702 25.2632 15.0818 25.2632H20.7794C21.6255 25.2632 22.4074 24.8117 22.8305 24.0789L27.3885 16.1842C27.8116 15.4514 27.8116 14.5486 27.3885 13.8158L22.8305 5.92105C22.4074 5.18826 21.6255 4.73684 20.7794 4.73684Z" fill="#335DDE"/>
<path d="M52.8916 24.2812C51.4619 24.2812 50.2158 24.0156 49.1533 23.4844C48.0986 22.9453 47.2783 22.2031 46.6924 21.2578C46.1143 20.3047 45.8252 19.207 45.8252 17.9648V6.53906H48.8838V17.7188C48.8838 18.8281 49.2432 19.7422 49.9619 20.4609C50.6885 21.1797 51.665 21.5391 52.8916 21.5391C54.1182 21.5391 55.0908 21.1797 55.8096 20.4609C56.5283 19.7422 56.8877 18.8281 56.8877 17.7188V6.53906H59.9463V17.9648C59.9463 19.207 59.6533 20.3047 59.0674 21.2578C58.4893 22.2031 57.6689 22.9453 56.6064 23.4844C55.5518 24.0156 54.3135 24.2812 52.8916 24.2812ZM68.1104 24.2812C65.9463 24.2812 64.251 23.7539 63.0244 22.6992C61.8057 21.6367 61.1963 20.1719 61.1963 18.3047H64.2314C64.2471 19.3594 64.5947 20.1836 65.2744 20.7773C65.9619 21.3711 66.915 21.668 68.1338 21.668C69.2197 21.668 70.0947 21.4414 70.7588 20.9883C71.4229 20.5273 71.7549 19.9141 71.7549 19.1484C71.7549 18.5312 71.5049 18.0312 71.0049 17.6484C70.5049 17.2578 69.6729 16.9297 68.5088 16.6641L66.6338 16.2422C64.8916 15.8438 63.6064 15.2539 62.7783 14.4727C61.9502 13.6914 61.5361 12.6875 61.5361 11.4609C61.5361 10.4219 61.8018 9.51172 62.333 8.73047C62.8721 7.94922 63.6221 7.34375 64.583 6.91406C65.5518 6.47656 66.6768 6.25781 67.958 6.25781C69.9111 6.25781 71.458 6.75391 72.5986 7.74609C73.7471 8.73828 74.3447 10.1016 74.3916 11.8359H71.4502C71.3877 10.9141 71.0439 10.1914 70.4189 9.66797C69.7939 9.14453 68.9697 8.88281 67.9463 8.88281C66.9775 8.88281 66.1846 9.10938 65.5674 9.5625C64.9502 10.0156 64.6416 10.5977 64.6416 11.3086C64.6416 11.8945 64.8838 12.3711 65.3682 12.7383C65.8604 13.0977 66.6768 13.4062 67.8174 13.6641L69.5869 14.0742C71.3994 14.4727 72.7275 15.0664 73.5713 15.8555C74.415 16.6445 74.8369 17.6797 74.8369 18.9609C74.8369 20.0469 74.5635 20.9883 74.0166 21.7852C73.4697 22.582 72.6924 23.1992 71.6846 23.6367C70.6768 24.0664 69.4854 24.2812 68.1104 24.2812ZM82.04 24H76.1455V6.53906H82.1689C83.9033 6.53906 85.3994 6.89453 86.6572 7.60547C87.915 8.30859 88.8838 9.3125 89.5635 10.6172C90.2432 11.9141 90.583 13.457 90.583 15.2461C90.583 17.0508 90.2432 18.6094 89.5635 19.9219C88.8838 21.2266 87.9033 22.2344 86.6221 22.9453C85.3486 23.6484 83.8213 24 82.04 24ZM79.2393 21.3516H81.876C83.7744 21.3516 85.1768 20.8203 86.083 19.7578C86.9971 18.6875 87.4541 17.1836 87.4541 15.2461C87.4541 13.3242 87.001 11.8359 86.0947 10.7812C85.1885 9.71875 83.8135 9.1875 81.9697 9.1875H79.2393V21.3516ZM95.29 24L90.6377 11.625H93.7666L96.0283 18.0703C96.1924 18.5625 96.3486 19.0547 96.4971 19.5469C96.6533 20.0312 96.8057 20.5156 96.9541 21C97.1025 20.5156 97.251 20.0312 97.3994 19.5469C97.5479 19.0547 97.7002 18.5625 97.8564 18.0703L100.083 11.625H103.177L98.5244 24H95.29ZM110.649 11.625V14.0039H108.13V20.4492C108.13 20.8945 108.22 21.2031 108.399 21.375C108.579 21.5391 108.907 21.6211 109.384 21.6211H110.649V24H108.868C107.61 24 106.677 23.7461 106.067 23.2383C105.466 22.7305 105.165 21.9453 105.165 20.8828V14.0039H103.009V11.625H105.165V8.25H108.13V11.625H110.649Z" fill="#0D0D12"/>
</svg>
